<?xml version="1.0" encoding="utf-8"?>
<!-- Generator: Adobe Illustrator 23.1.1, SVG Export Plug-In . SVG Version: 6.00 Build 0)  -->
<svg version="1.1" id="Ebene_1" xmlns="http://www.w3.org/2000/svg" xmlns:xlink="http://www.w3.org/1999/xlink" x="0px" y="0px"
	 viewBox="0 0 100 100" style="enable-background:new 0 0 100 100;" xml:space="preserve">
<style type="text/css">
	.st0{fill:#F18823;}
	.st1{fill:#FFFFFF;}
</style>
<rect y="0" class="st0" width="100" height="100"/>
<g>
	<path id="Path_6" class="st1" d="M84.79,17.6C67.23-1.83,37.25-3.36,17.82,14.2C7.71,23.33,2.01,36.37,2.19,49.99
		c-0.2,26.33,20.99,47.84,47.33,48.04c0.12,0,0.23,0,0.35,0c13.43-0.09,26.22-5.76,35.3-15.65c-5.05-2.57-9.51-6.17-13.1-10.55
		c-5.64,6.07-13.55,9.5-21.83,9.46c-16.88-0.04-30.54-13.76-30.49-30.65S33.5,20.11,50.38,20.15C58.35,20.17,66,23.3,71.7,28.89
		C75.07,24.11,79.56,20.23,84.79,17.6z"/>
	<g>
		<path class="st1" d="M89.57,56.95c-0.5,0.17-0.92,0.17-1.42,0.17c-4.33,0-10.74-15.15-10.74-20.23c0-1.83,0.42-2.5,1.08-3
			c-5.33,0.67-11.74,2.58-13.74,5.08c-0.5,0.67-0.75,1.58-0.75,2.83c0,7.91,8.41,25.81,14.4,25.81
			C81.16,67.61,85.74,63.11,89.57,56.95"/>
		<path class="st1" d="M86.83,33.39c5.49,0,10.99,0.92,10.99,4c0,6.33-4,13.9-5.99,13.9c-3.66,0-8.24-10.07-8.24-15.15
			C83.58,33.81,84.49,33.39,86.83,33.39"/>
	</g>
</g>
</svg>
