<?xml version="1.0" encoding="utf-8"?>
<!-- Generator: Adobe Illustrator 23.1.1, SVG Export Plug-In . SVG Version: 6.00 Build 0)  -->
<svg version="1.1" id="Ebene_1" xmlns="http://www.w3.org/2000/svg" xmlns:xlink="http://www.w3.org/1999/xlink" x="0px" y="0px"
	 viewBox="0 0 100 100" style="enable-background:new 0 0 100 100;" xml:space="preserve">
<style type="text/css">
	.st0{fill:#F18823;}
	.st1{fill:#FFFFFF;}
</style>
<g>
	<rect x="0.5" y="0.5" class="st0" width="99" height="99"/>
	<path d="M99,1v98H1V1H99 M100,0H0v100h100V0L100,0z"/>
</g>
<g>
	<path id="Path_6" class="st1" d="M81.28,20.86C65.5,3.39,38.53,2.02,21.06,17.8C11.97,26.01,6.85,37.74,7,49.99
		c-0.18,23.68,18.88,43.02,42.56,43.2c0.1,0,0.21,0,0.31,0c12.08-0.08,23.58-5.18,31.75-14.07c-4.54-2.31-8.56-5.55-11.78-9.49
		c-5.07,5.45-12.19,8.54-19.64,8.51C35.02,78.1,22.74,65.76,22.78,50.58c0.04-15.18,12.38-27.46,27.56-27.42
		c7.17,0.02,14.05,2.84,19.17,7.86C72.54,26.71,76.59,23.23,81.28,20.86z"/>
	<g>
		<path class="st1" d="M85.59,56.25c-0.45,0.15-0.82,0.15-1.27,0.15c-3.89,0-9.66-13.63-9.66-18.19c0-1.65,0.37-2.25,0.97-2.7
			c-4.79,0.6-10.56,2.32-12.35,4.57c-0.45,0.6-0.67,1.42-0.67,2.55c0,7.11,7.56,23.21,12.95,23.21
			C78.03,65.84,82.14,61.79,85.59,56.25"/>
		<path class="st1" d="M83.12,35.07c4.94,0,9.88,0.82,9.88,3.59c0,5.69-3.59,12.5-5.39,12.5c-3.29,0-7.41-9.06-7.41-13.63
			C80.2,35.44,81.02,35.07,83.12,35.07"/>
	</g>
</g>
</svg>
